# xmcd
#
# Track frame offsets: 
#        150
#        16501
#        30943
#        40253
#        52218
#        61111
#        75654
#        84274
#        98604
#        107699
#        124408
#        139138
#        147195
#        159266
#        171863
#        185825
#
# Disc length: 3449 seconds
#
# Revision: 0
# Processed by: cddbd v1.5.2PL0 Copyright (c) Steve Scherf et al.
# Submitted via: ExactAudioCopy v0.99pb4
#
DISCID=c60d7710
DTITLE=Will Tura - Hemels - Kerst and Gospelliedjes - CD 2
DYEAR=2014
DGENRE=Gospel
TTITLE0=Oh Wat Een Dag
TTITLE1=Al Wat Ik Voel
TTITLE2=Hallelujah
TTITLE3=Ik Hoor Je Toe
TTITLE4=Hij Draagt De Wereld In Zijn Handen
TTITLE5=Waar Is De Man
TTITLE6=Vol Verlangen Ga Ik Naar Huis
TTITLE7=Ik Geloof In God
TTITLE8=Joshua
TTITLE9=Als Jij De Klok Terug Kon Draaien
TTITLE10=Als De Hemel Opengaat
TTITLE11=Vrienden Voor 't Leven
TTITLE12=Hymne Aan De Liefde
TTITLE13=Dank
TTITLE14=Laat De Zon In Je Hart (Amen)
TTITLE15=Gospel Medley
EXTD=
EXTT0=
EXTT1=
EXTT2=
EXTT3=
EXTT4=
EXTT5=
EXTT6=
EXTT7=
EXTT8=
EXTT9=
EXTT10=
EXTT11=
EXTT12=
EXTT13=
EXTT14=
EXTT15=
PLAYORDER=
